<svg width="26" height="26" viewBox="0 0 26 26" fill="none" xmlns="http://www.w3.org/2000/svg">
<path fill-rule="evenodd" clip-rule="evenodd" d="M2.45334 13C2.45334 7.70797 6.57867 2.45331 13 2.45331C18.1856 2.45331 20.7504 6.29117 21.8424 8.33331H18.6C18.3525 8.33331 18.1151 8.43164 17.94 8.60667C17.765 8.78171 17.6667 9.0191 17.6667 9.26664C17.6667 9.51417 17.765 9.75157 17.94 9.92661C18.1151 10.1016 18.3525 10.2 18.6 10.2H24.2C24.4475 10.2 24.6849 10.1016 24.86 9.92661C25.035 9.75157 25.1333 9.51417 25.1333 9.26664V3.66664C25.1333 3.4191 25.035 3.18171 24.86 3.00667C24.6849 2.83164 24.4475 2.73331 24.2 2.73331C23.9525 2.73331 23.7151 2.83164 23.54 3.00667C23.365 3.18171 23.2667 3.4191 23.2667 3.66664V7.05091C21.9525 4.73251 18.9099 0.586639 13 0.586639C5.41574 0.586639 0.58667 6.81197 0.58667 13C0.58667 19.188 5.41574 25.4133 13 25.4133C16.6288 25.4133 19.6491 23.976 21.7995 21.7882C22.9405 20.6244 23.8457 19.2508 24.4651 17.7432C24.5116 17.6298 24.5354 17.5084 24.5351 17.3858C24.5347 17.2632 24.5102 17.1419 24.463 17.0288C24.4158 16.9157 24.3467 16.813 24.2598 16.7266C24.1729 16.6402 24.0698 16.5717 23.9564 16.5252C23.843 16.4786 23.7216 16.4548 23.599 16.4552C23.4765 16.4555 23.3552 16.48 23.2421 16.5272C23.129 16.5745 23.0263 16.6435 22.9398 16.7305C22.8534 16.8174 22.785 16.9205 22.7384 17.0338C22.2109 18.318 21.4402 19.4881 20.4685 20.4797C18.656 22.3277 16.108 23.5466 13 23.5466C6.57867 23.5466 2.45334 18.292 2.45334 13Z" fill="black"/>
</svg>
